# xmcd
#
# Track frame offsets: 
#        150
#        16399
#        35125
#        50387
#        62352
#        77307
#        96669
#        110803
#        130385
#        142922
#
# Disc length: 2043 seconds
#
# Revision: 0
# Processed by: cddbd v1.5.2PL0 Copyright (c) Steve Scherf et al.
# Submitted via: ExactAudioCopyFreeDBPlugin 1.0
#
DISCID=8507f90a
DTITLE=Scott Matthew - This Here Defeat
DYEAR=2013
DGENRE=Pop
TTITLE0=Effigy
TTITLE1=Skyline
TTITLE2=Constant
TTITLE3=Soul To Save
TTITLE4=Ruined Heart
TTITLE5=This Here Defeat
TTITLE6=Bittersweet
TTITLE7=Here We Go Again
TTITLE8=Ode
TTITLE9=Palace Of Tears
EXTD=
EXTT0=
EXTT1=
EXTT2=
EXTT3=
EXTT4=
EXTT5=
EXTT6=
EXTT7=
EXTT8=
EXTT9=
PLAYORDER=
